<svg width="31" height="38" viewBox="0 0 31 38" fill="none" xmlns="http://www.w3.org/2000/svg">
<path fill-rule="evenodd" clip-rule="evenodd" d="M3.5415 12.3751C3.5415 9.20353 4.80139 6.16188 7.04401 3.91926C9.28663 1.67664 12.3283 0.416748 15.4998 0.416748C18.6714 0.416748 21.713 1.67664 23.9556 3.91926C26.1983 6.16188 27.4582 9.20353 27.4582 12.3751V18.8052L30.5707 25.0304C30.714 25.3169 30.7817 25.6353 30.7673 25.9554C30.7529 26.2754 30.6569 26.5864 30.4885 26.8589C30.3201 27.1314 30.0848 27.3563 29.805 27.5123C29.5251 27.6683 29.2101 27.7501 28.8897 27.7501H22.1179C21.7379 29.2162 20.8818 30.5147 19.684 31.4417C18.4862 32.3686 17.0144 32.8716 15.4998 32.8716C13.9852 32.8716 12.5135 32.3686 11.3157 31.4417C10.1178 30.5147 9.26174 29.2162 8.88175 27.7501H2.10991C1.78956 27.7501 1.47452 27.6683 1.1947 27.5123C0.914887 27.3563 0.679591 27.1314 0.511161 26.8589C0.342732 26.5864 0.246762 26.2754 0.232367 25.9554C0.217972 25.6353 0.28563 25.3169 0.428914 25.0304L3.5415 18.8052V12.3751ZM12.541 27.7501C12.8409 28.2694 13.2722 28.7007 13.7916 29.0006C14.311 29.3004 14.9001 29.4583 15.4998 29.4583C16.0996 29.4583 16.6887 29.3004 17.2081 29.0006C17.7275 28.7007 18.1588 28.2694 18.4587 27.7501H12.541ZM15.4998 3.83341C13.2344 3.83341 11.0618 4.73334 9.45996 6.33521C7.85809 7.93708 6.95816 10.1097 6.95816 12.3751V18.8052C6.95813 19.3354 6.83472 19.8583 6.59771 20.3325L4.59896 24.3334H26.4024L24.4037 20.3325C24.1661 19.8584 24.0421 19.3355 24.0415 18.8052V12.3751C24.0415 10.1097 23.1416 7.93708 21.5397 6.33521C19.9378 4.73334 17.7652 3.83341 15.4998 3.83341Z" fill="white"/>
</svg>
