<svg width="25" height="26" viewBox="0 0 25 26" fill="none" xmlns="http://www.w3.org/2000/svg">
<path d="M18.4196 14.5039C15.9327 14.5039 13.9089 16.5269 13.9089 19.0146C13.9089 21.5022 15.9327 23.5253 18.4196 23.5253C20.9065 23.5253 22.9302 21.5022 22.9302 19.0146C22.9302 16.5269 20.9065 14.5039 18.4196 14.5039ZM18.4196 22.0217C16.7611 22.0217 15.4124 20.673 15.4124 19.0146C15.4124 17.3562 16.7611 16.0075 18.4196 16.0075V19.0146H21.4267C21.4267 20.673 20.078 22.0217 18.4196 22.0217Z" fill="#757575"/>
<path d="M12.4053 22.0214H7.14284V6.98578H17.6678V12.2483H19.1713V3.97866C19.1713 3.14945 18.497 2.4751 17.6678 2.4751H7.14284C6.31363 2.4751 5.63928 3.14945 5.63928 3.97866V22.0214C5.63928 22.8506 6.31363 23.525 7.14284 23.525H12.4053V22.0214ZM7.14284 3.97866H17.6678V5.48222H7.14284V3.97866Z" fill="#757575"/>
</svg>
