<svg width="43" height="31" viewBox="0 0 43 31" fill="none" xmlns="http://www.w3.org/2000/svg">
<path d="M3.74984 0.708252H18.5415C19.3261 0.708252 20.0786 1.01993 20.6334 1.57473C21.1882 2.12952 21.4998 2.88199 21.4998 3.66659C21.4998 4.45118 21.1882 5.20365 20.6334 5.75844C20.0786 6.31324 19.3261 6.62492 18.5415 6.62492H3.74984C2.96524 6.62492 2.21277 6.31324 1.65798 5.75844C1.10318 5.20365 0.791504 4.45118 0.791504 3.66659C0.791504 2.88199 1.10318 2.12952 1.65798 1.57473C2.21277 1.01993 2.96524 0.708252 3.74984 0.708252ZM24.4582 24.3749H39.2498C40.0344 24.3749 40.7869 24.6866 41.3417 25.2414C41.8965 25.7962 42.2082 26.5487 42.2082 27.3333C42.2082 28.1178 41.8965 28.8703 41.3417 29.4251C40.7869 29.9799 40.0344 30.2916 39.2498 30.2916H24.4582C23.6736 30.2916 22.9211 29.9799 22.3663 29.4251C21.8115 28.8703 21.4998 28.1178 21.4998 27.3333C21.4998 26.5487 21.8115 25.7962 22.3663 25.2414C22.9211 24.6866 23.6736 24.3749 24.4582 24.3749ZM3.74984 12.5416H39.2498C40.0344 12.5416 40.7869 12.8533 41.3417 13.4081C41.8965 13.9629 42.2082 14.7153 42.2082 15.4999C42.2082 16.2845 41.8965 17.037 41.3417 17.5918C40.7869 18.1466 40.0344 18.4583 39.2498 18.4583H3.74984C2.96524 18.4583 2.21277 18.1466 1.65798 17.5918C1.10318 17.037 0.791504 16.2845 0.791504 15.4999C0.791504 14.7153 1.10318 13.9629 1.65798 13.4081C2.21277 12.8533 2.96524 12.5416 3.74984 12.5416Z" fill="white"/>
</svg>
