<svg width="25" height="26" viewBox="0 0 25 26" fill="none" xmlns="http://www.w3.org/2000/svg">
<path d="M8.50116 14.6242C8.70997 14.9887 9.17695 15.1132 9.53763 14.9029L12.0479 13.6287C12.0889 13.6348 12.1299 13.6424 12.1732 13.6424C12.8034 13.6424 13.3122 13.1337 13.3122 12.5034L12.9325 6.52309C12.9325 6.3217 12.8525 6.12857 12.7101 5.98617C12.5677 5.84377 12.3746 5.76377 12.1732 5.76377C11.9718 5.76377 11.7787 5.84377 11.6363 5.98617C11.4939 6.12857 11.4139 6.3217 11.4139 6.52309L11.0608 12.0987L8.77983 13.587C8.6059 13.6879 8.47912 13.8538 8.4273 14.0481C8.37548 14.2424 8.40287 14.4493 8.50344 14.6235L8.50116 14.6242ZM9.56116 7.98249C9.73556 7.88179 9.86281 7.71595 9.91493 7.52143C9.96705 7.32691 9.93976 7.11966 9.83907 6.94526C9.76414 6.81526 9.65234 6.7104 9.5178 6.64394C9.38327 6.57749 9.23205 6.55243 9.08326 6.57193C8.93448 6.59144 8.79483 6.65463 8.68197 6.75352C8.56911 6.8524 8.48811 6.98254 8.44923 7.12747C8.41034 7.27239 8.41531 7.4256 8.4635 7.5677C8.5117 7.7098 8.60096 7.83442 8.71999 7.92578C8.83902 8.01715 8.98247 8.07116 9.13221 8.08098C9.28194 8.09081 9.43122 8.056 9.56116 7.98097V7.98249ZM6.61351 14.8368C6.4834 14.912 6.37851 15.024 6.31211 15.1588C6.24571 15.2936 6.22079 15.445 6.24049 15.594C6.2602 15.7429 6.32366 15.8827 6.42283 15.9955C6.522 16.1084 6.65243 16.1893 6.7976 16.228C6.94277 16.2667 7.09617 16.2615 7.23837 16.213C7.38058 16.1645 7.50519 16.0749 7.59645 15.9556C7.68771 15.8362 7.74151 15.6924 7.75103 15.5425C7.76056 15.3926 7.72539 15.2432 7.64997 15.1132C7.54858 14.9394 7.38255 14.8126 7.18809 14.7607C6.99364 14.7088 6.78655 14.7359 6.61199 14.8361L6.61351 14.8368ZM7.37282 8.85646C7.28632 8.80282 7.18992 8.76712 7.08935 8.75148C6.98878 8.73585 6.88609 8.74058 6.78739 8.76542C6.68869 8.79025 6.59599 8.83468 6.5148 8.89605C6.4336 8.95743 6.36558 9.0345 6.31477 9.12269C6.26395 9.21087 6.23139 9.30837 6.219 9.4094C6.20662 9.51042 6.21467 9.6129 6.24268 9.71075C6.27069 9.8086 6.31809 9.89982 6.38205 9.97898C6.44602 10.0582 6.52524 10.1237 6.61503 10.1716C6.7888 10.2627 6.9911 10.2831 7.17953 10.2283C7.36796 10.1736 7.52789 10.048 7.62578 9.87796C7.72367 9.7079 7.75193 9.50655 7.70463 9.31612C7.65733 9.12568 7.53814 8.96095 7.37206 8.85646H7.37282ZM5.43201 12.5042C5.43221 12.7058 5.51249 12.899 5.65517 13.0414C5.79785 13.1838 5.99126 13.2637 6.19285 13.2635C6.39443 13.2633 6.58768 13.183 6.73008 13.0404C6.87248 12.8977 6.95236 12.7043 6.95216 12.5027C6.95196 12.3011 6.87169 12.1079 6.729 11.9655C6.58632 11.8231 6.39291 11.7432 6.19133 11.7434C5.98974 11.7436 5.7965 11.8238 5.6541 11.9665C5.5117 12.1092 5.43181 12.3026 5.43201 12.5042ZM11.4131 18.4853C11.413 18.5851 11.4326 18.684 11.4707 18.7762C11.5088 18.8685 11.5647 18.9523 11.6352 19.023C11.7057 19.0936 11.7895 19.1497 11.8816 19.188C11.9738 19.2263 12.0726 19.2461 12.1724 19.2462C12.2723 19.2463 12.3711 19.2267 12.4634 19.1886C12.5556 19.1505 12.6395 19.0946 12.7101 19.0241C12.7808 18.9536 12.8368 18.8698 12.8751 18.7777C12.9134 18.6855 12.9332 18.5867 12.9333 18.4868C12.9335 18.2853 12.8536 18.0919 12.7112 17.9492C12.5688 17.8065 12.3755 17.7262 12.174 17.726C11.9724 17.7258 11.779 17.8057 11.6363 17.9481C11.4936 18.0905 11.4133 18.2837 11.4131 18.4853ZM8.5247 17.3046C8.31589 17.6691 8.44118 18.1322 8.80261 18.3411C8.93267 18.4162 9.0821 18.4511 9.23201 18.4414C9.38191 18.4316 9.52555 18.3776 9.64475 18.2862C9.76395 18.1947 9.85335 18.07 9.90163 17.9277C9.94992 17.7855 9.95493 17.6321 9.91603 17.487C9.87712 17.3419 9.79605 17.2116 9.68307 17.1126C9.57009 17.0136 9.43028 16.9503 9.28133 16.9308C9.13239 16.9113 8.98099 16.9364 8.84631 17.0029C8.71162 17.0694 8.5997 17.1744 8.5247 17.3046ZM16.9728 8.85646C16.883 8.9044 16.8038 8.9699 16.7399 9.04907C16.6759 9.12823 16.6285 9.21945 16.6005 9.3173C16.5725 9.41515 16.5644 9.51763 16.5768 9.61865C16.5892 9.71967 16.6218 9.81718 16.6726 9.90536C16.7234 9.99355 16.7914 10.0706 16.8726 10.132C16.9538 10.1934 17.0465 10.2378 17.1452 10.2626C17.2439 10.2875 17.3466 10.2922 17.4472 10.2766C17.5477 10.2609 17.6441 10.2252 17.7306 10.1716C17.8982 10.0677 18.0187 9.90273 18.0668 9.71155C18.1149 9.52037 18.0868 9.31798 17.9884 9.14717C17.89 8.97636 17.729 8.85053 17.5394 8.79627C17.3499 8.74202 17.1467 8.7636 16.9728 8.85646ZM16.6949 15.1147C16.6443 15.2011 16.6112 15.2967 16.5977 15.3959C16.5841 15.4951 16.5903 15.596 16.6159 15.6928C16.6415 15.7896 16.686 15.8804 16.7468 15.96C16.8076 16.0395 16.8836 16.1063 16.9703 16.1563C17.057 16.2064 17.1528 16.2388 17.2521 16.2517C17.3514 16.2646 17.4523 16.2578 17.5489 16.2315C17.6456 16.2053 17.7361 16.1602 17.8152 16.0989C17.8943 16.0375 17.9606 15.9611 18.0101 15.874C18.1092 15.6997 18.1353 15.4933 18.0828 15.2998C18.0302 15.1063 17.9033 14.9414 17.7296 14.8412C17.556 14.7409 17.3497 14.7134 17.1559 14.7647C16.962 14.8159 16.7963 14.9418 16.6949 15.1147ZM18.9136 12.5042C18.9136 12.0866 18.5735 11.7449 18.1543 11.7449C18.0041 11.7449 17.8573 11.7894 17.7325 11.8729C17.6076 11.9563 17.5103 12.0749 17.4528 12.2136C17.3953 12.3524 17.3803 12.505 17.4096 12.6523C17.4389 12.7996 17.5112 12.9349 17.6174 13.0411C17.7236 13.1473 17.8589 13.2196 18.0062 13.2489C18.1535 13.2782 18.3062 13.2632 18.4449 13.2057C18.5836 13.1482 18.7022 13.0509 18.7857 12.9261C18.8691 12.8012 18.9136 12.6544 18.9136 12.5042ZM14.5058 18.0639C14.5557 18.1502 14.622 18.2257 14.7011 18.2864C14.7802 18.347 14.8704 18.3914 14.9667 18.4171C15.0629 18.4429 15.1633 18.4494 15.262 18.4363C15.3608 18.4233 15.456 18.3909 15.5423 18.3411C15.6285 18.2912 15.7041 18.2248 15.7647 18.1458C15.8253 18.0667 15.8698 17.9765 15.8955 17.8802C15.9213 17.784 15.9278 17.6836 15.9147 17.5848C15.9017 17.4861 15.8693 17.3908 15.8194 17.3046C15.7699 17.2175 15.7037 17.1411 15.6246 17.0798C15.5454 17.0184 15.4549 16.9733 15.3583 16.9471C15.2617 16.9209 15.1608 16.914 15.0615 16.9269C14.9622 16.9398 14.8664 16.9722 14.7797 17.0223C14.693 17.0724 14.617 17.1391 14.5562 17.2187C14.4953 17.2982 14.4509 17.389 14.4253 17.4858C14.3997 17.5826 14.3935 17.6835 14.407 17.7827C14.4206 17.882 14.4537 17.9775 14.5043 18.0639H14.5058ZM14.7837 7.98325C14.9582 8.08364 15.1655 8.11059 15.3598 8.05819C15.5542 8.00579 15.7198 7.87832 15.8202 7.70382C15.9206 7.52932 15.9475 7.32209 15.8951 7.12772C15.8427 6.93334 15.7153 6.76774 15.5408 6.66736C15.3669 6.5745 15.1637 6.55292 14.9741 6.60717C14.7846 6.66142 14.6236 6.78726 14.5252 6.95807C14.4268 7.12888 14.3986 7.33127 14.4468 7.52245C14.4949 7.71362 14.6154 7.8786 14.783 7.98249L14.7837 7.98325ZM22.1969 11.6416C21.7185 6.1047 16.8437 2.00289 11.3083 2.4767C8.93645 2.68188 6.7154 3.72591 5.044 5.42132L3.6985 4.28994L2.70532 9.88077L8.04329 7.94604L6.80182 6.90046C8.07605 5.66467 9.73679 4.90509 11.505 4.74933C13.5612 4.57464 15.6027 5.22289 17.1814 6.55179C18.7602 7.8807 19.7472 9.78168 19.9258 11.8375C20.1005 13.8935 19.4525 15.9347 18.1239 17.5134C16.7953 19.0921 14.8947 20.0793 12.8391 20.2583C8.55431 20.6198 4.79039 17.4534 4.41681 13.1716C4.33936 12.2567 4.432 11.369 4.6522 10.5292L2.16924 11.4305C2.1009 12.0623 2.08875 12.7092 2.14646 13.3668C2.62331 18.9022 7.49735 23.0025 13.035 22.5287C18.5704 22.0503 22.673 17.177 22.1984 11.6401L22.1969 11.6416Z" fill="#757575"/>
</svg>
