<svg width="20" height="21" viewBox="0 0 20 21" fill="none" xmlns="http://www.w3.org/2000/svg">
<path d="M9.92769 0.976108C9.89516 0.981983 9.86304 0.989948 9.83154 0.999954C9.65787 1.03888 9.50308 1.13682 9.39353 1.27708C9.28398 1.41735 9.22646 1.59126 9.23077 1.76919V2.53842H2.30769C1.69565 2.53842 1.10868 2.78155 0.675907 3.21432C0.243131 3.6471 0 4.23407 0 4.84611L0 14.8461C0 16.12 1.03385 17.1538 2.30769 17.1538H9.23077V17.4423L5.04769 19.5338C4.86286 19.6231 4.72105 19.7821 4.65346 19.9759C4.58588 20.1697 4.59805 20.3824 4.68731 20.5673C4.77656 20.7521 4.93559 20.8939 5.1294 20.9615C5.32321 21.0291 5.53593 21.0169 5.72077 20.9276L9.23077 19.173V19.4615C9.23077 19.6655 9.31181 19.8612 9.45607 20.0054C9.60033 20.1497 9.79599 20.2307 10 20.2307C10.204 20.2307 10.3997 20.1497 10.5439 20.0054C10.6882 19.8612 10.7692 19.6655 10.7692 19.4615V19.173L14.2792 20.9276C14.4641 21.0169 14.6768 21.0291 14.8706 20.9615C15.0644 20.8939 15.2234 20.7521 15.3127 20.5673C15.4019 20.3824 15.4141 20.1697 15.3465 19.9759C15.279 19.7821 15.1371 19.6231 14.9523 19.5338L10.7692 17.4423V17.1538H17.6923C18.9662 17.1538 20 16.12 20 14.8461V4.84611C20 4.23407 19.7569 3.6471 19.3241 3.21432C18.8913 2.78155 18.3043 2.53842 17.6923 2.53842H10.7692V1.76919C10.7731 1.6598 10.7536 1.55084 10.712 1.4496C10.6704 1.34835 10.6077 1.25715 10.5281 1.18208C10.4484 1.10701 10.3536 1.0498 10.2501 1.01429C10.1466 0.978766 10.0367 0.965751 9.92769 0.976108ZM1.53846 4.84611H18.4615V14.8461H1.53846V4.84611ZM16.0577 5.61534C15.8854 5.63386 15.7244 5.71003 15.6008 5.83149L13.0769 8.35611L11.3223 6.59995C11.2383 6.51373 11.1352 6.44844 11.0213 6.40933C10.9075 6.37021 10.786 6.35837 10.6667 6.37476C10.5474 6.39115 10.4337 6.4353 10.3346 6.50368C10.2355 6.57205 10.1538 6.66273 10.0962 6.76842L7.81231 10.7592L6.87462 8.40303C6.82908 8.28138 6.75348 8.17323 6.65486 8.08869C6.55625 8.00414 6.43783 7.94595 6.31065 7.91953C6.18346 7.89311 6.05166 7.89932 5.92753 7.9376C5.8034 7.97587 5.69099 8.04496 5.60077 8.13842L3.29308 10.4461C3.22035 10.5188 3.16264 10.6051 3.12326 10.7001C3.08388 10.795 3.06359 10.8969 3.06355 10.9997C3.06352 11.1025 3.08374 11.2043 3.12305 11.2993C3.16237 11.3943 3.22001 11.4807 3.29269 11.5534C3.36537 11.6261 3.45167 11.6839 3.54665 11.7232C3.64163 11.7626 3.74344 11.7829 3.84627 11.7829C3.94909 11.783 4.05091 11.7628 4.14592 11.7234C4.24093 11.6841 4.32727 11.6265 4.4 11.5538L5.86615 10.0876L6.97231 12.8276C7.02451 12.9651 7.115 13.0846 7.23306 13.1722C7.35112 13.2598 7.4918 13.3117 7.63845 13.3219C7.78511 13.332 7.93159 13.2999 8.06055 13.2293C8.18952 13.1588 8.29557 13.0527 8.36615 12.9238L10.9385 8.42842L12.5246 10.0153C12.5963 10.0895 12.6823 10.1486 12.7773 10.1889C12.8723 10.2292 12.9745 10.2499 13.0777 10.2499C13.1809 10.2499 13.2831 10.2292 13.3781 10.1889C13.4731 10.1486 13.559 10.0895 13.6308 10.0153L16.7077 6.93842C16.8292 6.82592 16.9112 6.67722 16.9414 6.51441C16.9717 6.3516 16.9485 6.18338 16.8755 6.03476C16.8025 5.88613 16.6835 5.76504 16.5361 5.68947C16.3888 5.61391 16.221 5.58791 16.0577 5.61534Z" fill="#757575"/>
</svg>
