<svg width="21" height="21" viewBox="0 0 21 21" fill="none" xmlns="http://www.w3.org/2000/svg">
<path d="M6.75478 13.3173L10.036 10.036C10.0968 9.97478 10.1691 9.92618 10.2487 9.89301C10.3283 9.85985 10.4137 9.84277 10.5 9.84277C10.5863 9.84277 10.6717 9.85985 10.7513 9.89301C10.8309 9.92618 10.9032 9.97478 10.964 10.036L19.6875 18.7595L18.7596 19.6875L10.5 11.4279L8.14669 13.7812L11.8125 17.447L10.8846 18.375L9.38044 16.8709L6.75478 14.2452C6.69363 14.1844 6.6451 14.1121 6.61198 14.0325C6.57887 13.9528 6.56182 13.8675 6.56182 13.7812C6.56182 13.695 6.57887 13.6096 6.61198 13.53C6.6451 13.4504 6.69363 13.3781 6.75478 13.3173Z" fill="white"/>
<path d="M2.24044 5.90626L5.90625 9.57208L9.84441 5.63326C9.96699 5.51099 10.1125 5.41418 10.2727 5.3484C10.4329 5.28263 10.6045 5.24919 10.7776 5.25001C11.1239 5.25096 11.4558 5.38871 11.7009 5.63326L15.75 9.68627L14.8221 10.6142L10.773 6.56186L6.36956 10.964C6.30877 11.025 6.23652 11.0735 6.15695 11.1065C6.07739 11.1396 5.99208 11.1566 5.90592 11.1566C5.81976 11.1566 5.73445 11.1396 5.65489 11.1065C5.57532 11.0735 5.50307 11.025 5.44228 10.964L1.3125 6.8342L2.24044 5.90626Z" fill="white"/>
<path d="M6.23438 5.90625C7.50094 5.90625 8.53125 4.87594 8.53125 3.60938C8.53125 2.34281 7.50094 1.3125 6.23438 1.3125C4.96781 1.3125 3.9375 2.34281 3.9375 3.60938C3.9375 4.87594 4.96781 5.90625 6.23438 5.90625ZM6.23438 2.625C6.77709 2.625 7.21875 3.06666 7.21875 3.60938C7.21875 4.15209 6.77709 4.59375 6.23438 4.59375C5.69166 4.59375 5.25 4.15209 5.25 3.60938C5.25 3.06666 5.69166 2.625 6.23438 2.625Z" fill="white"/>
</svg>
