<svg width="35" height="35" viewBox="0 0 35 35" fill="none" xmlns="http://www.w3.org/2000/svg">
<path d="M31.744 3.36316C31.6067 3.21269 31.4404 3.09157 31.255 3.00712C31.0697 2.92266 30.8691 2.87662 30.6655 2.87177C30.4619 2.86691 30.2593 2.90334 30.0702 2.97887C29.881 3.05439 29.7091 3.16745 29.5647 3.31121L28.3131 4.55877L30.4445 6.68474L31.675 5.46043C31.955 5.18737 32.1186 4.81659 32.1315 4.42569C32.1443 4.03478 32.0055 3.65404 31.744 3.36316ZM17.2785 22.9686H12.0312V17.7214L12.6738 17.0802L22.117 7.65613H3.28125V31.7186H27.3438V12.8829L17.9197 22.3261L17.2785 22.9686ZM27.3438 9.78621L29.5853 7.53992L27.46 5.41463L25.2144 7.65613H27.3438V9.78621Z" fill="white"/>
<path d="M14.2188 20.7812H16.3714L27.3438 9.78633V7.65625H25.2144L14.2188 18.6286V20.7812Z" fill="white"/>
</svg>
