<svg width="31" height="37" viewBox="0 0 31 37" fill="none" xmlns="http://www.w3.org/2000/svg">
<g clip-path="url(#clip0_156_872)">
<path d="M20.2692 6.9375C22.2447 6.9375 23.8462 5.38451 23.8462 3.46875C23.8462 1.55299 22.2447 0 20.2692 0C18.2937 0 16.6923 1.55299 16.6923 3.46875C16.6923 5.38451 18.2937 6.9375 20.2692 6.9375ZM8.47209 22.9422L7.36921 25.4368H2.38462C1.06786 25.4368 0 26.4723 0 27.7493C0 29.0262 1.06786 30.0618 2.38462 30.0618H8.15613C9.59062 30.0618 10.882 29.2351 11.4432 27.9596L12.0982 26.4767L11.3031 26.0214C10.0124 25.2821 9.06303 24.188 8.47209 22.9422ZM28.6154 16.1868H25.3343L23.3923 12.3386C22.4608 10.4922 20.7506 9.14232 18.7885 8.65742L13.4917 7.12973C11.3828 6.63832 9.18673 7.08998 7.46757 8.36836L4.51139 10.566C3.46589 11.3428 3.26767 12.7939 4.07024 13.8078C4.87281 14.8217 6.36841 15.0117 7.41317 14.2356L10.3708 12.038C10.9424 11.6124 11.6705 11.4599 12.2539 11.5943L13.3494 11.9101L10.5579 18.2254C9.61745 20.3558 10.4603 22.8511 12.5177 24.029L18.8504 27.6546L16.8033 33.9945C16.4099 35.2129 17.1096 36.51 18.366 36.8916C18.6037 36.9639 18.8437 36.9986 19.0799 36.9986C20.0941 36.9986 21.0345 36.3648 21.3542 35.3762L23.712 28.073C24.1524 26.5721 23.4967 24.9598 22.0994 24.1425L17.5359 21.5308L19.8691 15.8739L21.3796 18.8678C21.9757 20.0487 23.2366 20.8111 24.5921 20.8111H28.6154C29.9321 20.8111 31 19.7755 31 18.4986C31 17.2216 29.9321 16.1868 28.6154 16.1868Z" fill="white"/>
</g>
<defs>
<clipPath id="clip0_156_872">
<rect width="31" height="37" fill="white"/>
</clipPath>
</defs>
</svg>
