<svg width="24" height="24" viewBox="0 0 24 24" fill="none" xmlns="http://www.w3.org/2000/svg">
<path d="M12 0C18.628 0 24 5.372 24 12V22C24 23.097 23.097 24 22 24H14.5L14.499 23.831C14.45 20.937 13.152 18.929 10.79 17.871L24 12L23.68 11.891C20.822 10.8923 18.4287 9.42867 16.5 7.5C14.5713 5.57133 13.1077 3.17767 12.109 0.319L12 0ZM12 0L4 18C4 18.6667 4.16667 19.1667 4.5 19.5C4.834 19.8333 5.334 20 6 20L6.187 20.001C9.958 20.041 11.5 21.296 11.5 24H2C0.903 24 0 23.097 0 22V2C0 0.903 0.903 0 2 0H12ZM19.207 4.793C18.426 4.012 17.477 3.696 17.086 4.086C16.696 4.476 17.012 5.426 17.793 6.207C18.574 6.988 19.524 7.305 19.914 6.914C20.305 6.524 19.988 5.574 19.207 4.793Z" fill="white"/>
</svg>
